# xmcd
#
# Track frame offsets: 
#        150
#        14332
#        29113
#        43275
#        56760
#        72519
#        89079
#        107793
#        129340
#        145531
#        161343
#        190499
#        237287
#
# Disc length: 3173 seconds
#
# Revision: 1
# Processed by: cddbd v1.5.1PL0 Copyright (c) Steve Scherf et al.
# Submitted via: ExactAudioCopy v0.95a4
#
DISCID=bf0c630d
DTITLE=Buddy Jewell - Times Like These
DYEAR=2005
DGENRE=Country
TTITLE0=Me Lovin' You
TTITLE1=If She Were Any Other Woman
TTITLE2=Back To You
TTITLE3=So Gone
TTITLE4=You Ain't Doin' It Right
TTITLE5=Addicted To The Rain
TTITLE6=I'd Run
TTITLE7=Dyess Arkansas
TTITLE8=Glad I'm Gone
TTITLE9=Times Like These
TTITLE10=Run Away Home
TTITLE11=DATA
TTITLE12=DATA
EXTD=
EXTT0=
EXTT1=
EXTT2=
EXTT3=
EXTT4=
EXTT5=
EXTT6=
EXTT7=
EXTT8=
EXTT9=
EXTT10=
EXTT11=
EXTT12=
PLAYORDER=
